<mxfile host="app.diagrams.net" agent="Mozilla/5.0 (Windows NT 10.0; Win64; x64) AppleWebKit/537.36 (KHTML, like Gecko) Chrome/138.0.0.0 Safari/537.36 OPR/122.0.0.0" version="28.2.5">
  <diagram name="PÃ¡gina-1" id="Tozx0cZLPXK1zdHrhZ0J">
    <mxGraphModel dx="2117" dy="2334" grid="0" gridSize="10" guides="1" tooltips="1" connect="1" arrows="1" fold="1" page="0" pageScale="1" pageWidth="827" pageHeight="1169" background="none" math="0" shadow="0">
      <root>
        <mxCell id="0" />
        <mxCell id="1" parent="0" />
        <mxCell id="lIoIU-Qlp34W3ExORCf9-1" value="Canal" style="swimlane;fontStyle=0;childLayout=stackLayout;horizontal=1;startSize=26;fillColor=none;horizontalStack=0;resizeParent=1;resizeParentMax=0;resizeLast=0;collapsible=1;marginBottom=0;whiteSpace=wrap;html=1;sketch=1;curveFitting=1;jiggle=2;" vertex="1" parent="1">
          <mxGeometry x="20" y="-290" width="140" height="112" as="geometry" />
        </mxCell>
        <mxCell id="lIoIU-Qlp34W3ExORCf9-2" value="- tipo: String" style="text;strokeColor=none;fillColor=none;align=left;verticalAlign=top;spacingLeft=4;spacingRight=4;overflow=hidden;rotatable=0;points=[[0,0.5],[1,0.5]];portConstraint=eastwest;whiteSpace=wrap;html=1;sketch=1;curveFitting=1;jiggle=2;" vertex="1" parent="lIoIU-Qlp34W3ExORCf9-1">
          <mxGeometry y="26" width="140" height="26" as="geometry" />
        </mxCell>
        <mxCell id="lIoIU-Qlp34W3ExORCf9-3" value="- identificador: String" style="text;strokeColor=none;fillColor=none;align=left;verticalAlign=top;spacingLeft=4;spacingRight=4;overflow=hidden;rotatable=0;points=[[0,0.5],[1,0.5]];portConstraint=eastwest;whiteSpace=wrap;html=1;sketch=1;curveFitting=1;jiggle=2;" vertex="1" parent="lIoIU-Qlp34W3ExORCf9-1">
          <mxGeometry y="52" width="140" height="26" as="geometry" />
        </mxCell>
        <mxCell id="lIoIU-Qlp34W3ExORCf9-83" value="" style="line;strokeWidth=1;fillColor=none;align=left;verticalAlign=middle;spacingTop=-1;spacingLeft=3;spacingRight=3;rotatable=0;labelPosition=right;points=[];portConstraint=eastwest;strokeColor=inherit;sketch=1;curveFitting=1;jiggle=2;" vertex="1" parent="lIoIU-Qlp34W3ExORCf9-1">
          <mxGeometry y="78" width="140" height="8" as="geometry" />
        </mxCell>
        <mxCell id="lIoIU-Qlp34W3ExORCf9-4" value="+ imprimirDados()" style="text;strokeColor=none;fillColor=none;align=left;verticalAlign=top;spacingLeft=4;spacingRight=4;overflow=hidden;rotatable=0;points=[[0,0.5],[1,0.5]];portConstraint=eastwest;whiteSpace=wrap;html=1;sketch=1;curveFitting=1;jiggle=2;" vertex="1" parent="lIoIU-Qlp34W3ExORCf9-1">
          <mxGeometry y="86" width="140" height="26" as="geometry" />
        </mxCell>
        <mxCell id="lIoIU-Qlp34W3ExORCf9-5" value="Endereco" style="swimlane;fontStyle=0;childLayout=stackLayout;horizontal=1;startSize=26;fillColor=none;horizontalStack=0;resizeParent=1;resizeParentMax=0;resizeLast=0;collapsible=1;marginBottom=0;whiteSpace=wrap;html=1;sketch=1;curveFitting=1;jiggle=2;" vertex="1" parent="1">
          <mxGeometry x="620" y="-1052" width="140" height="164" as="geometry" />
        </mxCell>
        <mxCell id="lIoIU-Qlp34W3ExORCf9-6" value="- rua: String" style="text;strokeColor=none;fillColor=none;align=left;verticalAlign=top;spacingLeft=4;spacingRight=4;overflow=hidden;rotatable=0;points=[[0,0.5],[1,0.5]];portConstraint=eastwest;whiteSpace=wrap;html=1;sketch=1;curveFitting=1;jiggle=2;" vertex="1" parent="lIoIU-Qlp34W3ExORCf9-5">
          <mxGeometry y="26" width="140" height="26" as="geometry" />
        </mxCell>
        <mxCell id="lIoIU-Qlp34W3ExORCf9-7" value="- cidade: String" style="text;strokeColor=none;fillColor=none;align=left;verticalAlign=top;spacingLeft=4;spacingRight=4;overflow=hidden;rotatable=0;points=[[0,0.5],[1,0.5]];portConstraint=eastwest;whiteSpace=wrap;html=1;sketch=1;curveFitting=1;jiggle=2;" vertex="1" parent="lIoIU-Qlp34W3ExORCf9-5">
          <mxGeometry y="52" width="140" height="26" as="geometry" />
        </mxCell>
        <mxCell id="lIoIU-Qlp34W3ExORCf9-8" value="- estado: String" style="text;strokeColor=none;fillColor=none;align=left;verticalAlign=top;spacingLeft=4;spacingRight=4;overflow=hidden;rotatable=0;points=[[0,0.5],[1,0.5]];portConstraint=eastwest;whiteSpace=wrap;html=1;sketch=1;curveFitting=1;jiggle=2;" vertex="1" parent="lIoIU-Qlp34W3ExORCf9-5">
          <mxGeometry y="78" width="140" height="26" as="geometry" />
        </mxCell>
        <mxCell id="lIoIU-Qlp34W3ExORCf9-80" value="- cep: String" style="text;strokeColor=none;fillColor=none;align=left;verticalAlign=top;spacingLeft=4;spacingRight=4;overflow=hidden;rotatable=0;points=[[0,0.5],[1,0.5]];portConstraint=eastwest;whiteSpace=wrap;html=1;sketch=1;curveFitting=1;jiggle=2;" vertex="1" parent="lIoIU-Qlp34W3ExORCf9-5">
          <mxGeometry y="104" width="140" height="26" as="geometry" />
        </mxCell>
        <mxCell id="lIoIU-Qlp34W3ExORCf9-82" value="" style="line;strokeWidth=1;fillColor=none;align=left;verticalAlign=middle;spacingTop=-1;spacingLeft=3;spacingRight=3;rotatable=0;labelPosition=right;points=[];portConstraint=eastwest;strokeColor=inherit;sketch=1;curveFitting=1;jiggle=2;" vertex="1" parent="lIoIU-Qlp34W3ExORCf9-5">
          <mxGeometry y="130" width="140" height="8" as="geometry" />
        </mxCell>
        <mxCell id="lIoIU-Qlp34W3ExORCf9-79" value="+ imprimirDados()" style="text;strokeColor=none;fillColor=none;align=left;verticalAlign=top;spacingLeft=4;spacingRight=4;overflow=hidden;rotatable=0;points=[[0,0.5],[1,0.5]];portConstraint=eastwest;whiteSpace=wrap;html=1;sketch=1;curveFitting=1;jiggle=2;" vertex="1" parent="lIoIU-Qlp34W3ExORCf9-5">
          <mxGeometry y="138" width="140" height="26" as="geometry" />
        </mxCell>
        <mxCell id="lIoIU-Qlp34W3ExORCf9-10" value="Beneficiario" style="swimlane;fontStyle=0;childLayout=stackLayout;horizontal=1;startSize=26;fillColor=none;horizontalStack=0;resizeParent=1;resizeParentMax=0;resizeLast=0;collapsible=1;marginBottom=0;whiteSpace=wrap;html=1;sketch=1;curveFitting=1;jiggle=2;" vertex="1" parent="1">
          <mxGeometry x="330" y="-830" width="140" height="86" as="geometry" />
        </mxCell>
        <mxCell id="lIoIU-Qlp34W3ExORCf9-11" value="- programaSocial: String" style="text;strokeColor=none;fillColor=none;align=left;verticalAlign=top;spacingLeft=4;spacingRight=4;overflow=hidden;rotatable=0;points=[[0,0.5],[1,0.5]];portConstraint=eastwest;whiteSpace=wrap;html=1;sketch=1;curveFitting=1;jiggle=2;" vertex="1" parent="lIoIU-Qlp34W3ExORCf9-10">
          <mxGeometry y="26" width="140" height="26" as="geometry" />
        </mxCell>
        <mxCell id="lIoIU-Qlp34W3ExORCf9-90" value="" style="line;strokeWidth=1;fillColor=none;align=left;verticalAlign=middle;spacingTop=-1;spacingLeft=3;spacingRight=3;rotatable=0;labelPosition=right;points=[];portConstraint=eastwest;strokeColor=inherit;sketch=1;curveFitting=1;jiggle=2;" vertex="1" parent="lIoIU-Qlp34W3ExORCf9-10">
          <mxGeometry y="52" width="140" height="8" as="geometry" />
        </mxCell>
        <mxCell id="lIoIU-Qlp34W3ExORCf9-13" value="+ imprimirDados()" style="text;strokeColor=none;fillColor=none;align=left;verticalAlign=top;spacingLeft=4;spacingRight=4;overflow=hidden;rotatable=0;points=[[0,0.5],[1,0.5]];portConstraint=eastwest;whiteSpace=wrap;html=1;sketch=1;curveFitting=1;jiggle=2;" vertex="1" parent="lIoIU-Qlp34W3ExORCf9-10">
          <mxGeometry y="60" width="140" height="26" as="geometry" />
        </mxCell>
        <mxCell id="lIoIU-Qlp34W3ExORCf9-14" value="GerenciadorDeContatos" style="swimlane;fontStyle=0;childLayout=stackLayout;horizontal=1;startSize=26;fillColor=none;horizontalStack=0;resizeParent=1;resizeParentMax=0;resizeLast=0;collapsible=1;marginBottom=0;whiteSpace=wrap;html=1;sketch=1;curveFitting=1;jiggle=2;" vertex="1" parent="1">
          <mxGeometry x="520" y="-580" width="300" height="172" as="geometry" />
        </mxCell>
        <mxCell id="lIoIU-Qlp34W3ExORCf9-15" value="- listaDeContatos: ArrayList&amp;lt;Contato&amp;gt;" style="text;strokeColor=none;fillColor=none;align=left;verticalAlign=top;spacingLeft=4;spacingRight=4;overflow=hidden;rotatable=0;points=[[0,0.5],[1,0.5]];portConstraint=eastwest;whiteSpace=wrap;html=1;sketch=1;curveFitting=1;jiggle=2;" vertex="1" parent="lIoIU-Qlp34W3ExORCf9-14">
          <mxGeometry y="26" width="300" height="34" as="geometry" />
        </mxCell>
        <mxCell id="lIoIU-Qlp34W3ExORCf9-56" value="" style="line;strokeWidth=1;fillColor=none;align=left;verticalAlign=middle;spacingTop=-1;spacingLeft=3;spacingRight=3;rotatable=0;labelPosition=right;points=[];portConstraint=eastwest;strokeColor=inherit;sketch=1;curveFitting=1;jiggle=2;" vertex="1" parent="lIoIU-Qlp34W3ExORCf9-14">
          <mxGeometry y="60" width="300" height="8" as="geometry" />
        </mxCell>
        <mxCell id="lIoIU-Qlp34W3ExORCf9-16" value="+ adicionarContato(contato: Contato)" style="text;strokeColor=none;fillColor=none;align=left;verticalAlign=top;spacingLeft=4;spacingRight=4;overflow=hidden;rotatable=0;points=[[0,0.5],[1,0.5]];portConstraint=eastwest;whiteSpace=wrap;html=1;sketch=1;curveFitting=1;jiggle=2;" vertex="1" parent="lIoIU-Qlp34W3ExORCf9-14">
          <mxGeometry y="68" width="300" height="26" as="geometry" />
        </mxCell>
        <mxCell id="lIoIU-Qlp34W3ExORCf9-17" value="+ listarTodosContatos()" style="text;strokeColor=none;fillColor=none;align=left;verticalAlign=top;spacingLeft=4;spacingRight=4;overflow=hidden;rotatable=0;points=[[0,0.5],[1,0.5]];portConstraint=eastwest;whiteSpace=wrap;html=1;sketch=1;curveFitting=1;jiggle=2;" vertex="1" parent="lIoIU-Qlp34W3ExORCf9-14">
          <mxGeometry y="94" width="300" height="26" as="geometry" />
        </mxCell>
        <mxCell id="lIoIU-Qlp34W3ExORCf9-58" value="+ buscarContatoPorId(id: int): Contato" style="text;strokeColor=none;fillColor=none;align=left;verticalAlign=top;spacingLeft=4;spacingRight=4;overflow=hidden;rotatable=0;points=[[0,0.5],[1,0.5]];portConstraint=eastwest;whiteSpace=wrap;html=1;sketch=1;curveFitting=1;jiggle=2;" vertex="1" parent="lIoIU-Qlp34W3ExORCf9-14">
          <mxGeometry y="120" width="300" height="26" as="geometry" />
        </mxCell>
        <mxCell id="lIoIU-Qlp34W3ExORCf9-57" value="+ atualizarStatusContato(id: int, novoStatus: String)" style="text;strokeColor=none;fillColor=none;align=left;verticalAlign=top;spacingLeft=4;spacingRight=4;overflow=hidden;rotatable=0;points=[[0,0.5],[1,0.5]];portConstraint=eastwest;whiteSpace=wrap;html=1;sketch=1;curveFitting=1;jiggle=2;" vertex="1" parent="lIoIU-Qlp34W3ExORCf9-14">
          <mxGeometry y="146" width="300" height="26" as="geometry" />
        </mxCell>
        <mxCell id="lIoIU-Qlp34W3ExORCf9-18" value="Mensagem" style="swimlane;fontStyle=0;childLayout=stackLayout;horizontal=1;startSize=26;fillColor=none;horizontalStack=0;resizeParent=1;resizeParentMax=0;resizeLast=0;collapsible=1;marginBottom=0;whiteSpace=wrap;html=1;sketch=1;curveFitting=1;jiggle=2;" vertex="1" parent="1">
          <mxGeometry x="210" y="-290" width="140" height="112" as="geometry" />
        </mxCell>
        <mxCell id="lIoIU-Qlp34W3ExORCf9-19" value="- assunto: String" style="text;strokeColor=none;fillColor=none;align=left;verticalAlign=top;spacingLeft=4;spacingRight=4;overflow=hidden;rotatable=0;points=[[0,0.5],[1,0.5]];portConstraint=eastwest;whiteSpace=wrap;html=1;sketch=1;curveFitting=1;jiggle=2;" vertex="1" parent="lIoIU-Qlp34W3ExORCf9-18">
          <mxGeometry y="26" width="140" height="26" as="geometry" />
        </mxCell>
        <mxCell id="lIoIU-Qlp34W3ExORCf9-20" value="- conteudo: String" style="text;strokeColor=none;fillColor=none;align=left;verticalAlign=top;spacingLeft=4;spacingRight=4;overflow=hidden;rotatable=0;points=[[0,0.5],[1,0.5]];portConstraint=eastwest;whiteSpace=wrap;html=1;sketch=1;curveFitting=1;jiggle=2;" vertex="1" parent="lIoIU-Qlp34W3ExORCf9-18">
          <mxGeometry y="52" width="140" height="26" as="geometry" />
        </mxCell>
        <mxCell id="lIoIU-Qlp34W3ExORCf9-84" value="" style="line;strokeWidth=1;fillColor=none;align=left;verticalAlign=middle;spacingTop=-1;spacingLeft=3;spacingRight=3;rotatable=0;labelPosition=right;points=[];portConstraint=eastwest;strokeColor=inherit;sketch=1;curveFitting=1;jiggle=2;" vertex="1" parent="lIoIU-Qlp34W3ExORCf9-18">
          <mxGeometry y="78" width="140" height="8" as="geometry" />
        </mxCell>
        <mxCell id="lIoIU-Qlp34W3ExORCf9-21" value="+ imprimirDados()" style="text;strokeColor=none;fillColor=none;align=left;verticalAlign=top;spacingLeft=4;spacingRight=4;overflow=hidden;rotatable=0;points=[[0,0.5],[1,0.5]];portConstraint=eastwest;whiteSpace=wrap;html=1;sketch=1;curveFitting=1;jiggle=2;" vertex="1" parent="lIoIU-Qlp34W3ExORCf9-18">
          <mxGeometry y="86" width="140" height="26" as="geometry" />
        </mxCell>
        <mxCell id="lIoIU-Qlp34W3ExORCf9-22" value="Voluntario" style="swimlane;fontStyle=0;childLayout=stackLayout;horizontal=1;startSize=26;fillColor=none;horizontalStack=0;resizeParent=1;resizeParentMax=0;resizeLast=0;collapsible=1;marginBottom=0;whiteSpace=wrap;html=1;sketch=1;curveFitting=1;jiggle=2;" vertex="1" parent="1">
          <mxGeometry x="510" y="-830" width="140" height="86" as="geometry" />
        </mxCell>
        <mxCell id="lIoIU-Qlp34W3ExORCf9-23" value="- areaAtuacao: String" style="text;strokeColor=none;fillColor=none;align=left;verticalAlign=top;spacingLeft=4;spacingRight=4;overflow=hidden;rotatable=0;points=[[0,0.5],[1,0.5]];portConstraint=eastwest;whiteSpace=wrap;html=1;sketch=1;curveFitting=1;jiggle=2;" vertex="1" parent="lIoIU-Qlp34W3ExORCf9-22">
          <mxGeometry y="26" width="140" height="26" as="geometry" />
        </mxCell>
        <mxCell id="lIoIU-Qlp34W3ExORCf9-88" value="" style="line;strokeWidth=1;fillColor=none;align=left;verticalAlign=middle;spacingTop=-1;spacingLeft=3;spacingRight=3;rotatable=0;labelPosition=right;points=[];portConstraint=eastwest;strokeColor=inherit;sketch=1;curveFitting=1;jiggle=2;" vertex="1" parent="lIoIU-Qlp34W3ExORCf9-22">
          <mxGeometry y="52" width="140" height="8" as="geometry" />
        </mxCell>
        <mxCell id="lIoIU-Qlp34W3ExORCf9-24" value="+ imprimirDados()" style="text;strokeColor=none;fillColor=none;align=left;verticalAlign=top;spacingLeft=4;spacingRight=4;overflow=hidden;rotatable=0;points=[[0,0.5],[1,0.5]];portConstraint=eastwest;whiteSpace=wrap;html=1;sketch=1;curveFitting=1;jiggle=2;" vertex="1" parent="lIoIU-Qlp34W3ExORCf9-22">
          <mxGeometry y="60" width="140" height="26" as="geometry" />
        </mxCell>
        <mxCell id="lIoIU-Qlp34W3ExORCf9-26" value="Contato" style="swimlane;fontStyle=0;childLayout=stackLayout;horizontal=1;startSize=26;fillColor=none;horizontalStack=0;resizeParent=1;resizeParentMax=0;resizeLast=0;collapsible=1;marginBottom=0;whiteSpace=wrap;html=1;sketch=1;curveFitting=1;jiggle=2;" vertex="1" parent="1">
          <mxGeometry y="-660" width="230" height="246" as="geometry" />
        </mxCell>
        <mxCell id="lIoIU-Qlp34W3ExORCf9-27" value="- id: int" style="text;strokeColor=none;fillColor=none;align=left;verticalAlign=top;spacingLeft=4;spacingRight=4;overflow=hidden;rotatable=0;points=[[0,0.5],[1,0.5]];portConstraint=eastwest;whiteSpace=wrap;html=1;sketch=1;curveFitting=1;jiggle=2;" vertex="1" parent="lIoIU-Qlp34W3ExORCf9-26">
          <mxGeometry y="26" width="230" height="26" as="geometry" />
        </mxCell>
        <mxCell id="lIoIU-Qlp34W3ExORCf9-28" value="- publico: String" style="text;strokeColor=none;fillColor=none;align=left;verticalAlign=top;spacingLeft=4;spacingRight=4;overflow=hidden;rotatable=0;points=[[0,0.5],[1,0.5]];portConstraint=eastwest;whiteSpace=wrap;html=1;sketch=1;curveFitting=1;jiggle=2;" vertex="1" parent="lIoIU-Qlp34W3ExORCf9-26">
          <mxGeometry y="52" width="230" height="26" as="geometry" />
        </mxCell>
        <mxCell id="lIoIU-Qlp34W3ExORCf9-29" value="- status: String" style="text;strokeColor=none;fillColor=none;align=left;verticalAlign=top;spacingLeft=4;spacingRight=4;overflow=hidden;rotatable=0;points=[[0,0.5],[1,0.5]];portConstraint=eastwest;whiteSpace=wrap;html=1;sketch=1;curveFitting=1;jiggle=2;" vertex="1" parent="lIoIU-Qlp34W3ExORCf9-26">
          <mxGeometry y="78" width="230" height="26" as="geometry" />
        </mxCell>
        <mxCell id="lIoIU-Qlp34W3ExORCf9-49" value="- canal: Canal" style="text;strokeColor=none;fillColor=none;align=left;verticalAlign=top;spacingLeft=4;spacingRight=4;overflow=hidden;rotatable=0;points=[[0,0.5],[1,0.5]];portConstraint=eastwest;whiteSpace=wrap;html=1;sketch=1;curveFitting=1;jiggle=2;" vertex="1" parent="lIoIU-Qlp34W3ExORCf9-26">
          <mxGeometry y="104" width="230" height="26" as="geometry" />
        </mxCell>
        <mxCell id="lIoIU-Qlp34W3ExORCf9-48" value="- mensagem: Mensagem" style="text;strokeColor=none;fillColor=none;align=left;verticalAlign=top;spacingLeft=4;spacingRight=4;overflow=hidden;rotatable=0;points=[[0,0.5],[1,0.5]];portConstraint=eastwest;whiteSpace=wrap;html=1;sketch=1;curveFitting=1;jiggle=2;" vertex="1" parent="lIoIU-Qlp34W3ExORCf9-26">
          <mxGeometry y="130" width="230" height="26" as="geometry" />
        </mxCell>
        <mxCell id="lIoIU-Qlp34W3ExORCf9-55" value="" style="line;strokeWidth=1;fillColor=none;align=left;verticalAlign=middle;spacingTop=-1;spacingLeft=3;spacingRight=3;rotatable=0;labelPosition=right;points=[];portConstraint=eastwest;strokeColor=inherit;sketch=1;curveFitting=1;jiggle=2;" vertex="1" parent="lIoIU-Qlp34W3ExORCf9-26">
          <mxGeometry y="156" width="230" height="8" as="geometry" />
        </mxCell>
        <mxCell id="lIoIU-Qlp34W3ExORCf9-51" value="+ verificarId: int" style="text;strokeColor=none;fillColor=none;align=left;verticalAlign=top;spacingLeft=4;spacingRight=4;overflow=hidden;rotatable=0;points=[[0,0.5],[1,0.5]];portConstraint=eastwest;whiteSpace=wrap;html=1;sketch=1;curveFitting=1;jiggle=2;" vertex="1" parent="lIoIU-Qlp34W3ExORCf9-26">
          <mxGeometry y="164" width="230" height="26" as="geometry" />
        </mxCell>
        <mxCell id="lIoIU-Qlp34W3ExORCf9-53" value="+ atualizarStatus(novoStatus: String)" style="text;strokeColor=none;fillColor=none;align=left;verticalAlign=top;spacingLeft=4;spacingRight=4;overflow=hidden;rotatable=0;points=[[0,0.5],[1,0.5]];portConstraint=eastwest;whiteSpace=wrap;html=1;sketch=1;curveFitting=1;jiggle=2;" vertex="1" parent="lIoIU-Qlp34W3ExORCf9-26">
          <mxGeometry y="190" width="230" height="30" as="geometry" />
        </mxCell>
        <mxCell id="lIoIU-Qlp34W3ExORCf9-52" value="+ imprimirDados()" style="text;strokeColor=none;fillColor=none;align=left;verticalAlign=top;spacingLeft=4;spacingRight=4;overflow=hidden;rotatable=0;points=[[0,0.5],[1,0.5]];portConstraint=eastwest;whiteSpace=wrap;html=1;sketch=1;curveFitting=1;jiggle=2;" vertex="1" parent="lIoIU-Qlp34W3ExORCf9-26">
          <mxGeometry y="220" width="230" height="26" as="geometry" />
        </mxCell>
        <mxCell id="lIoIU-Qlp34W3ExORCf9-30" value="Dentista" style="swimlane;fontStyle=0;childLayout=stackLayout;horizontal=1;startSize=26;fillColor=none;horizontalStack=0;resizeParent=1;resizeParentMax=0;resizeLast=0;collapsible=1;marginBottom=0;whiteSpace=wrap;html=1;sketch=1;curveFitting=1;jiggle=2;" vertex="1" parent="1">
          <mxGeometry x="170" y="-830" width="140" height="86" as="geometry" />
        </mxCell>
        <mxCell id="lIoIU-Qlp34W3ExORCf9-31" value="- cro: String" style="text;strokeColor=none;fillColor=none;align=left;verticalAlign=top;spacingLeft=4;spacingRight=4;overflow=hidden;rotatable=0;points=[[0,0.5],[1,0.5]];portConstraint=eastwest;whiteSpace=wrap;html=1;sketch=1;curveFitting=1;jiggle=2;" vertex="1" parent="lIoIU-Qlp34W3ExORCf9-30">
          <mxGeometry y="26" width="140" height="26" as="geometry" />
        </mxCell>
        <mxCell id="lIoIU-Qlp34W3ExORCf9-87" value="" style="line;strokeWidth=1;fillColor=none;align=left;verticalAlign=middle;spacingTop=-1;spacingLeft=3;spacingRight=3;rotatable=0;labelPosition=right;points=[];portConstraint=eastwest;strokeColor=inherit;sketch=1;curveFitting=1;jiggle=2;" vertex="1" parent="lIoIU-Qlp34W3ExORCf9-30">
          <mxGeometry y="52" width="140" height="8" as="geometry" />
        </mxCell>
        <mxCell id="lIoIU-Qlp34W3ExORCf9-32" value="+ imprimirDados()" style="text;strokeColor=none;fillColor=none;align=left;verticalAlign=top;spacingLeft=4;spacingRight=4;overflow=hidden;rotatable=0;points=[[0,0.5],[1,0.5]];portConstraint=eastwest;whiteSpace=wrap;html=1;sketch=1;curveFitting=1;jiggle=2;" vertex="1" parent="lIoIU-Qlp34W3ExORCf9-30">
          <mxGeometry y="60" width="140" height="26" as="geometry" />
        </mxCell>
        <mxCell id="lIoIU-Qlp34W3ExORCf9-34" value="Pessoa" style="swimlane;fontStyle=0;childLayout=stackLayout;horizontal=1;startSize=26;fillColor=none;horizontalStack=0;resizeParent=1;resizeParentMax=0;resizeLast=0;collapsible=1;marginBottom=0;whiteSpace=wrap;html=1;sketch=1;curveFitting=1;jiggle=2;" vertex="1" parent="1">
          <mxGeometry x="70" y="-1082" width="460" height="164" as="geometry" />
        </mxCell>
        <mxCell id="lIoIU-Qlp34W3ExORCf9-35" value="- nome: String" style="text;strokeColor=none;fillColor=none;align=left;verticalAlign=top;spacingLeft=4;spacingRight=4;overflow=hidden;rotatable=0;points=[[0,0.5],[1,0.5]];portConstraint=eastwest;whiteSpace=wrap;html=1;sketch=1;curveFitting=1;jiggle=2;" vertex="1" parent="lIoIU-Qlp34W3ExORCf9-34">
          <mxGeometry y="26" width="460" height="26" as="geometry" />
        </mxCell>
        <mxCell id="lIoIU-Qlp34W3ExORCf9-36" value="- email: String" style="text;strokeColor=none;fillColor=none;align=left;verticalAlign=top;spacingLeft=4;spacingRight=4;overflow=hidden;rotatable=0;points=[[0,0.5],[1,0.5]];portConstraint=eastwest;whiteSpace=wrap;html=1;sketch=1;curveFitting=1;jiggle=2;" vertex="1" parent="lIoIU-Qlp34W3ExORCf9-34">
          <mxGeometry y="52" width="460" height="26" as="geometry" />
        </mxCell>
        <mxCell id="lIoIU-Qlp34W3ExORCf9-46" value="- telefone: String" style="text;strokeColor=none;fillColor=none;align=left;verticalAlign=top;spacingLeft=4;spacingRight=4;overflow=hidden;rotatable=0;points=[[0,0.5],[1,0.5]];portConstraint=eastwest;whiteSpace=wrap;html=1;sketch=1;curveFitting=1;jiggle=2;" vertex="1" parent="lIoIU-Qlp34W3ExORCf9-34">
          <mxGeometry y="78" width="460" height="26" as="geometry" />
        </mxCell>
        <mxCell id="lIoIU-Qlp34W3ExORCf9-37" value="- endereco: Endereco" style="text;strokeColor=none;fillColor=none;align=left;verticalAlign=top;spacingLeft=4;spacingRight=4;overflow=hidden;rotatable=0;points=[[0,0.5],[1,0.5]];portConstraint=eastwest;whiteSpace=wrap;html=1;sketch=1;curveFitting=1;jiggle=2;" vertex="1" parent="lIoIU-Qlp34W3ExORCf9-34">
          <mxGeometry y="104" width="460" height="26" as="geometry" />
        </mxCell>
        <mxCell id="lIoIU-Qlp34W3ExORCf9-54" value="" style="line;strokeWidth=1;fillColor=none;align=left;verticalAlign=middle;spacingTop=-1;spacingLeft=3;spacingRight=3;rotatable=0;labelPosition=right;points=[];portConstraint=eastwest;strokeColor=inherit;sketch=1;curveFitting=1;jiggle=2;" vertex="1" parent="lIoIU-Qlp34W3ExORCf9-34">
          <mxGeometry y="130" width="460" height="8" as="geometry" />
        </mxCell>
        <mxCell id="lIoIU-Qlp34W3ExORCf9-47" value="+ imprimirDados()" style="text;strokeColor=none;fillColor=none;align=left;verticalAlign=top;spacingLeft=4;spacingRight=4;overflow=hidden;rotatable=0;points=[[0,0.5],[1,0.5]];portConstraint=eastwest;whiteSpace=wrap;html=1;sketch=1;curveFitting=1;jiggle=2;" vertex="1" parent="lIoIU-Qlp34W3ExORCf9-34">
          <mxGeometry y="138" width="460" height="26" as="geometry" />
        </mxCell>
        <mxCell id="lIoIU-Qlp34W3ExORCf9-38" value="Doador" style="swimlane;fontStyle=0;childLayout=stackLayout;horizontal=1;startSize=26;fillColor=none;horizontalStack=0;resizeParent=1;resizeParentMax=0;resizeLast=0;collapsible=1;marginBottom=0;whiteSpace=wrap;html=1;sketch=1;curveFitting=1;jiggle=2;" vertex="1" parent="1">
          <mxGeometry y="-830" width="140" height="86" as="geometry" />
        </mxCell>
        <mxCell id="lIoIU-Qlp34W3ExORCf9-39" value="- tipoDoacao: String" style="text;strokeColor=none;fillColor=none;align=left;verticalAlign=top;spacingLeft=4;spacingRight=4;overflow=hidden;rotatable=0;points=[[0,0.5],[1,0.5]];portConstraint=eastwest;whiteSpace=wrap;html=1;sketch=1;curveFitting=1;jiggle=2;" vertex="1" parent="lIoIU-Qlp34W3ExORCf9-38">
          <mxGeometry y="26" width="140" height="26" as="geometry" />
        </mxCell>
        <mxCell id="lIoIU-Qlp34W3ExORCf9-86" value="" style="line;strokeWidth=1;fillColor=none;align=left;verticalAlign=middle;spacingTop=-1;spacingLeft=3;spacingRight=3;rotatable=0;labelPosition=right;points=[];portConstraint=eastwest;strokeColor=inherit;sketch=1;curveFitting=1;jiggle=2;" vertex="1" parent="lIoIU-Qlp34W3ExORCf9-38">
          <mxGeometry y="52" width="140" height="8" as="geometry" />
        </mxCell>
        <mxCell id="lIoIU-Qlp34W3ExORCf9-41" value="+ imprimirDados()" style="text;strokeColor=none;fillColor=none;align=left;verticalAlign=top;spacingLeft=4;spacingRight=4;overflow=hidden;rotatable=0;points=[[0,0.5],[1,0.5]];portConstraint=eastwest;whiteSpace=wrap;html=1;sketch=1;curveFitting=1;jiggle=2;" vertex="1" parent="lIoIU-Qlp34W3ExORCf9-38">
          <mxGeometry y="60" width="140" height="26" as="geometry" />
        </mxCell>
        <mxCell id="lIoIU-Qlp34W3ExORCf9-68" value="Extends" style="endArrow=block;endSize=16;endFill=0;html=1;rounded=0;exitX=0.628;exitY=0.948;exitDx=0;exitDy=0;exitPerimeter=0;sketch=1;curveFitting=1;jiggle=2;" edge="1" parent="1" source="lIoIU-Qlp34W3ExORCf9-47" target="lIoIU-Qlp34W3ExORCf9-10">
          <mxGeometry width="160" relative="1" as="geometry">
            <mxPoint x="270" y="-880" as="sourcePoint" />
            <mxPoint x="430" y="-880" as="targetPoint" />
          </mxGeometry>
        </mxCell>
        <mxCell id="lIoIU-Qlp34W3ExORCf9-69" value="Extends" style="endArrow=block;endSize=16;endFill=0;html=1;rounded=0;exitX=0.302;exitY=0.929;exitDx=0;exitDy=0;exitPerimeter=0;entryX=0.462;entryY=0.006;entryDx=0;entryDy=0;entryPerimeter=0;sketch=1;curveFitting=1;jiggle=2;" edge="1" parent="1" source="lIoIU-Qlp34W3ExORCf9-47" target="lIoIU-Qlp34W3ExORCf9-30">
          <mxGeometry width="160" relative="1" as="geometry">
            <mxPoint x="200" y="-890" as="sourcePoint" />
            <mxPoint x="360" y="-890" as="targetPoint" />
          </mxGeometry>
        </mxCell>
        <mxCell id="lIoIU-Qlp34W3ExORCf9-70" value="Extends" style="endArrow=block;endSize=16;endFill=0;html=1;rounded=0;exitX=0.082;exitY=1.119;exitDx=0;exitDy=0;exitPerimeter=0;entryX=0.613;entryY=0.006;entryDx=0;entryDy=0;entryPerimeter=0;sketch=1;curveFitting=1;jiggle=2;" edge="1" parent="1" source="lIoIU-Qlp34W3ExORCf9-47" target="lIoIU-Qlp34W3ExORCf9-38">
          <mxGeometry width="160" relative="1" as="geometry">
            <mxPoint x="230" y="-880" as="sourcePoint" />
            <mxPoint x="390" y="-880" as="targetPoint" />
          </mxGeometry>
        </mxCell>
        <mxCell id="lIoIU-Qlp34W3ExORCf9-71" value="Extends" style="endArrow=block;endSize=16;endFill=0;html=1;rounded=0;exitX=0.87;exitY=0.948;exitDx=0;exitDy=0;exitPerimeter=0;entryX=0.25;entryY=0;entryDx=0;entryDy=0;sketch=1;curveFitting=1;jiggle=2;" edge="1" parent="1" source="lIoIU-Qlp34W3ExORCf9-47" target="lIoIU-Qlp34W3ExORCf9-22">
          <mxGeometry width="160" relative="1" as="geometry">
            <mxPoint x="420" y="-890" as="sourcePoint" />
            <mxPoint x="423" y="-802" as="targetPoint" />
          </mxGeometry>
        </mxCell>
        <mxCell id="lIoIU-Qlp34W3ExORCf9-72" value="" style="html=1;labelBackgroundColor=#ffffff;jettySize=auto;orthogonalLoop=1;fontSize=14;rounded=0;jumpStyle=gap;edgeStyle=orthogonalEdgeStyle;startArrow=diamond;startFill=0;endArrow=open;strokeWidth=1;exitX=1;exitY=0.5;exitDx=0;exitDy=0;entryX=0.016;entryY=0.315;entryDx=0;entryDy=0;entryPerimeter=0;sketch=1;curveFitting=1;jiggle=2;" edge="1" parent="1" source="lIoIU-Qlp34W3ExORCf9-46" target="lIoIU-Qlp34W3ExORCf9-7">
          <mxGeometry width="48" height="48" relative="1" as="geometry">
            <mxPoint x="530" y="-882" as="sourcePoint" />
            <mxPoint x="610" y="-991" as="targetPoint" />
          </mxGeometry>
        </mxCell>
        <mxCell id="lIoIU-Qlp34W3ExORCf9-73" value="" style="html=1;labelBackgroundColor=#ffffff;jettySize=auto;orthogonalLoop=1;fontSize=14;rounded=0;jumpStyle=gap;edgeStyle=orthogonalEdgeStyle;startArrow=diamond;startFill=0;endArrow=open;strokeWidth=1;exitX=0.449;exitY=1.104;exitDx=0;exitDy=0;exitPerimeter=0;entryX=0.5;entryY=0;entryDx=0;entryDy=0;sketch=1;curveFitting=1;jiggle=2;" edge="1" parent="1" source="lIoIU-Qlp34W3ExORCf9-52" target="lIoIU-Qlp34W3ExORCf9-1">
          <mxGeometry width="48" height="48" relative="1" as="geometry">
            <mxPoint x="282" y="-352" as="sourcePoint" />
            <mxPoint x="330" y="-400" as="targetPoint" />
            <Array as="points">
              <mxPoint x="90" y="-411" />
            </Array>
          </mxGeometry>
        </mxCell>
        <mxCell id="lIoIU-Qlp34W3ExORCf9-75" value="" style="html=1;labelBackgroundColor=#ffffff;jettySize=auto;orthogonalLoop=1;fontSize=14;rounded=0;jumpStyle=gap;edgeStyle=orthogonalEdgeStyle;startArrow=diamond;startFill=0;endArrow=open;strokeWidth=1;entryX=0.357;entryY=0;entryDx=0;entryDy=0;entryPerimeter=0;exitX=0.737;exitY=1.023;exitDx=0;exitDy=0;exitPerimeter=0;sketch=1;curveFitting=1;jiggle=2;" edge="1" parent="1" source="lIoIU-Qlp34W3ExORCf9-52" target="lIoIU-Qlp34W3ExORCf9-18">
          <mxGeometry width="48" height="48" relative="1" as="geometry">
            <mxPoint x="170" y="-410" as="sourcePoint" />
            <mxPoint x="238" y="-380" as="targetPoint" />
          </mxGeometry>
        </mxCell>
        <mxCell id="lIoIU-Qlp34W3ExORCf9-77" value="Use" style="endArrow=open;endSize=12;dashed=1;html=1;rounded=0;exitX=1.012;exitY=1.141;exitDx=0;exitDy=0;exitPerimeter=0;sketch=1;curveFitting=1;jiggle=2;" edge="1" parent="1" source="lIoIU-Qlp34W3ExORCf9-49">
          <mxGeometry width="160" relative="1" as="geometry">
            <mxPoint x="290" y="-530" as="sourcePoint" />
            <mxPoint x="520" y="-520" as="targetPoint" />
          </mxGeometry>
        </mxCell>
      </root>
    </mxGraphModel>
  </diagram>
</mxfile>
